<svg width="39" height="35" viewBox="0 0 39 35" fill="none" xmlns="http://www.w3.org/2000/svg">
<path fill-rule="evenodd" clip-rule="evenodd" d="M-13.4086 4.55431L-13.6126 4.68776C-15.6385 6.25793 -15.9876 9.1478 -14.3918 11.1418C-12.7965 13.136 -9.86087 13.4785 -7.83547 11.9089L-2.67538 7.90848L3.81766 10.9975C6.13865 12.1022 8.93065 11.1446 10.0527 8.85926C11.1746 6.57353 10.2025 3.82575 7.88083 2.72168C0.929149 -0.268432 -7.08958 0.421872 -13.4086 4.55431Z" fill="#F2BCA7"/>
<path fill-rule="evenodd" clip-rule="evenodd" d="M-22.1025 17.8953C-22.3578 26.4128 -15.551 33.5216 -6.8974 33.7729L-2.33536 34.0021C6.31836 34.2524 13.5392 27.5524 13.7939 19.0338C14.0493 10.5163 7.24253 3.4078 -1.41119 3.15644L-5.97251 2.92799C-14.6269 2.67662 -21.8478 9.37802 -22.1025 17.8953Z" fill="#FCD9C3"/>
<path fill-rule="evenodd" clip-rule="evenodd" d="M2.71553 7.08109C0.697651 7.3191 -0.74482 9.12025 -0.508438 11.109C-0.270962 13.1002 1.5615 14.5255 3.58415 14.2921L16.7086 12.7773C16.7114 12.7769 33.7264 10.7703 33.7292 10.77C35.7477 10.5319 37.1903 8.73075 36.9539 6.74239C36.7164 4.75078 34.884 3.32588 32.8613 3.5592L2.72516 7.07992C2.7225 7.08028 2.71902 7.08073 2.71553 7.08109Z" fill="#FCD9C3"/>
<path fill-rule="evenodd" clip-rule="evenodd" d="M33.0291 4.93829C33.0291 4.93829 0.697617 7.31903 2.7155 7.08111C2.71898 7.08066 2.72246 7.0803 2.72512 7.07994L32.8613 3.55921C34.8839 3.3258 36.7163 4.75071 36.9538 6.74241C36.9813 6.97437 36.9841 7.20381 36.9675 7.42874C36.4387 5.81121 34.8085 4.73294 33.0291 4.93829Z" fill="#F2BCA7"/>
<path fill-rule="evenodd" clip-rule="evenodd" d="M14.5349 20.4207H14.5252L1.41133 20.4541C-0.625704 20.4596 -2.27229 22.0893 -2.26734 24.0943C-2.26184 26.0962 -0.611132 27.7153 1.42041 27.7153H1.43077L14.5439 27.6818C16.581 27.6763 18.2282 26.0467 18.2226 24.0417C18.2171 22.0397 16.5672 20.4207 14.5349 20.4207Z" fill="#FCD9C3"/>
<path fill-rule="evenodd" clip-rule="evenodd" d="M14.5194 22.5677C14.5161 22.5668 14.5229 22.5677 14.5194 22.5677C14.5194 22.5677 7.16317 21.1934 4.38217 20.9282L4.1929 20.4207L14.5251 20.4207H14.5349C16.5672 20.4207 18.2227 22.0397 18.2227 24.0417C18.2227 25.0528 17.9657 25.2631 17.9248 25.4816C17.6091 23.7912 16.3049 23.0426 14.5194 22.5677Z" fill="#F2BCA7"/>
<path fill-rule="evenodd" clip-rule="evenodd" d="M4.95425 13.6885C2.92794 13.5358 1.15716 15.0266 0.996399 17.0225C0.836094 19.0213 2.35207 20.77 4.38224 20.9282L17.5555 21.9536C17.5583 21.9538 34.645 23.2412 34.6478 23.2415C36.6748 23.3942 38.4455 21.9035 38.6063 19.9078C38.7666 17.9087 37.2505 16.1604 35.2205 16.0023L4.96388 13.6892C4.96113 13.6889 4.95774 13.6888 4.95425 13.6885Z" fill="#FCD9C3"/>
<path fill-rule="evenodd" clip-rule="evenodd" d="M12.6164 26.7142H12.6067L-0.506388 26.7477C-2.54352 26.7532 -4.19074 28.3828 -4.18515 30.3879C-4.17956 32.3898 -2.52958 34.0088 -0.497314 34.0088H-0.48769L12.6261 33.9754C14.6633 33.9699 16.3098 32.3402 16.3049 30.3353C16.2994 28.3333 14.6487 26.7142 12.6164 26.7142Z" fill="#FCD9C3"/>
<path fill-rule="evenodd" clip-rule="evenodd" d="M12.6164 28.0373H12.6067C12.6067 28.0373 1.12269 26.7532 3.15982 26.7478L12.6067 26.7142H12.6164C14.6487 26.7142 16.2994 28.3334 16.3049 30.3353C16.3056 30.5654 16.282 30.7898 16.2404 31.0084C15.9247 29.3179 14.4232 28.0373 12.6164 28.0373Z" fill="#F2BCA7"/>
<path fill-rule="evenodd" clip-rule="evenodd" d="M35.1128 17.3872C35.1128 17.3872 13.1745 14.317 13.1773 14.3171L35.2205 16.0023C37.2505 16.1604 38.7666 17.9088 38.6063 19.9079C38.5875 20.1407 38.5449 20.3664 38.4841 20.5837C38.2849 18.8958 36.8987 17.5262 35.1128 17.3872Z" fill="#F2BCA7"/>
<path fill-rule="evenodd" clip-rule="evenodd" d="M36.5071 8.95932L32.3832 9.55588C31.9314 9.62346 31.4693 9.5631 31.0511 9.38193C29.7975 8.83869 29.285 7.40377 29.8273 6.2332C29.9269 6.0182 30.067 5.82385 30.2272 5.64792C30.7125 5.11496 31.3817 4.77861 32.1049 4.70417L35.5195 4.25098L35.7557 4.40968C37.2826 5.43508 37.6253 7.5105 36.5071 8.95932Z" fill="#CE4EAA"/>
<path fill-rule="evenodd" clip-rule="evenodd" d="M37.5721 22.0487L33.4159 21.7382C32.9601 21.7063 32.5228 21.5475 32.1552 21.2801C31.0537 20.4789 30.8742 18.9681 31.6647 17.9435C31.8099 17.7555 31.99 17.5962 32.1855 17.4592C32.778 17.0444 33.506 16.861 34.2281 16.9449L37.6602 17.2419L37.8553 17.4478C39.1158 18.7786 38.9866 20.8775 37.5721 22.0487Z" fill="#CE4EAA"/>
</svg>
