<svg width="11" height="9" viewBox="0 0 11 9" fill="none" xmlns="http://www.w3.org/2000/svg">
<path d="M10.3489 1.19453C10.0811 0.670123 9.41882 0.452436 8.87005 0.708655C7.49051 1.35275 6.11533 2.64394 4.78359 4.54628C4.58973 4.82382 4.41091 5.09313 4.2499 5.3471C4.01489 5.03665 3.74706 4.72845 3.44717 4.4221C2.78054 3.74172 2.18593 3.3194 2.16101 3.30187C1.67003 2.95477 0.977652 3.05351 0.614157 3.52293C0.250976 3.99197 0.355021 4.65293 0.845998 5.00042C0.864197 5.01313 2.68403 6.33274 3.16278 7.89248C3.29215 8.31364 3.68184 8.61437 4.14037 8.64803C4.16846 8.64953 4.19655 8.65028 4.22464 8.65028C4.65152 8.65028 5.04358 8.41426 5.22636 8.04096C5.2319 8.02974 5.77232 6.93041 6.64034 5.69537C7.73072 4.14311 8.8372 3.07564 9.84099 2.60731C10.3897 2.35072 10.6172 1.71821 10.349 1.19455L10.3489 1.19453Z" fill="#4BA047"/>
</svg>
