<svg width="30" height="47" viewBox="0 0 30 47" fill="none" xmlns="http://www.w3.org/2000/svg">
<path fill-rule="evenodd" clip-rule="evenodd" d="M4.5594 4.76615C4.38154 3.91356 4.93413 3.07514 5.79229 2.89791C6.65152 2.72278 7.49438 3.27019 7.67277 4.1233L11.3398 21.6553C11.4585 22.2221 12.0164 22.587 12.588 22.4685C12.7394 22.4376 12.8745 22.3742 12.9917 22.2892C13.3342 22.1518 13.5965 21.8425 13.6467 21.4524L15.9383 3.47888C15.9916 3.06045 16.2053 2.68765 16.541 2.42914C16.8772 2.17064 17.2936 2.05686 17.7148 2.11087C18.136 2.16383 18.5112 2.37671 18.7714 2.71019C19.0316 3.04315 19.1456 3.45738 19.0923 3.87581L16.8276 21.6406C16.7753 22.0496 16.9701 22.4303 17.2942 22.6437C17.4926 22.8885 17.7866 23.0411 18.1059 23.0411C18.688 23.0411 19.1614 22.5708 19.1614 21.9924V20.6816C19.1614 19.6696 19.9906 18.8464 21.0087 18.8464C22.0273 18.8464 22.8559 19.6696 22.8559 20.6816V24.0898C22.8559 24.6682 23.3298 25.1385 23.9114 25.1385C24.4936 25.1385 24.967 24.6682 24.967 24.0898V22.1786C25.1417 22.1015 25.5887 21.9924 25.8531 21.9924C26.6063 21.9924 27.2665 22.6049 27.2665 23.3033C27.2665 28.1724 26.8659 36.693 25.7919 38.827C24.2191 41.9527 22.4595 44.5398 16.8302 44.5398C11.6728 44.5398 7.20199 42.0995 4.24168 37.6677C2.35118 34.8378 1.49249 29.0229 4.45015 26.3524C4.75046 26.0813 5.3669 25.7127 5.47193 25.6503L6.20713 30.695C6.28365 31.2172 6.7349 31.5937 7.25054 31.5937C7.30068 31.5937 7.35188 31.59 7.40307 31.5832C7.97993 31.4999 8.37999 30.9682 8.2966 30.3951L4.57049 4.82907L4.5594 4.76615ZM25.8188 19.8945C25.6183 19.8945 25.2625 19.9344 24.843 20.0408C24.5316 18.1705 22.8743 16.7485 20.9369 16.7485C20.4587 16.7485 19.989 16.8444 19.5462 17.0106L21.1865 4.13956C21.3111 3.16532 21.0456 2.20105 20.4397 1.42502C19.8343 0.648469 18.9609 0.153488 17.9803 0.0302671C16.9991 -0.0945269 16.0291 0.169743 15.2474 0.77169C14.4663 1.37311 13.9676 2.24143 13.8435 3.21566L12.2512 15.7045L9.73954 3.69648C9.32471 1.71184 7.36138 0.431915 5.36321 0.844574C3.37666 1.25461 2.09204 3.18525 2.48577 5.15888L5.12888 23.2965C4.25646 23.7752 3.23468 24.4967 3.17979 24.536C0.0474327 26.775 -0.950595 33.6486 2.50899 38.826C5.87304 43.8629 10.9635 46.6366 16.8424 46.6366C23.6592 46.6366 25.9376 43.2415 27.6872 39.764C29.3623 36.436 29.3813 23.8376 29.3813 23.3033C29.3813 21.456 27.75 19.8951 25.8188 19.8945Z" fill="white"/>
</svg>
