<svg width="29" height="47" viewBox="0 0 29 47" fill="none" xmlns="http://www.w3.org/2000/svg">
<path fill-rule="evenodd" clip-rule="evenodd" d="M16.8274 1.50385C17.5306 2.18221 17.9914 3.24086 17.9914 4.45984V5.03312C18.476 4.80877 18.9879 4.71064 19.5044 4.71064C20.3911 4.71064 21.2937 5.01482 21.9985 5.69597C22.7032 6.37712 23.1624 7.44632 23.1624 8.66987V11.0167C23.647 10.7921 24.1755 10.6943 24.6921 10.6943C25.576 10.6943 26.4663 11.0012 27.1695 11.6796C27.8727 12.358 28.3334 13.4166 28.3334 14.6356V30.9741C28.3334 35.9359 26.5877 39.8005 23.9438 42.3502C21.3 44.8998 17.8047 46.1482 14.3334 46.1482C10.8621 46.1482 7.38342 44.8998 4.73957 42.3502C2.09576 39.8005 0.333374 35.9359 0.333374 30.9741V20.888C0.333374 19.6679 0.808731 18.6098 1.51393 17.932C2.21911 17.2541 3.10598 16.9466 3.99132 16.9466C4.50883 16.9466 5.03552 17.0448 5.52104 17.2691V8.65195C5.52104 7.43298 5.98179 6.37432 6.68498 5.69597C7.38809 5.01761 8.29511 4.69273 9.179 4.69273C9.69693 4.69273 10.2064 4.80721 10.6921 5.03312V4.45984C10.6921 3.24086 11.1528 2.18221 11.856 1.50385C12.5591 0.825477 13.4495 0.518524 14.3334 0.518524C15.2448 0.539524 16.2466 0.958347 16.8274 1.50385H16.8274ZM14.3334 2.81164C13.9259 2.81164 13.5347 2.94975 13.2693 3.20577C13.0039 3.46181 12.8203 3.80999 12.8203 4.45984V22.7511C12.8283 23.3568 12.3184 23.914 11.7562 23.914C11.194 23.914 10.6841 23.3568 10.6921 22.7511V8.74152C10.7304 8.19245 10.4653 7.75616 10.2431 7.39791C9.97778 7.14187 9.58651 6.98585 9.179 6.98585C8.77152 6.98585 8.36364 7.14187 8.09825 7.39791C7.83285 7.65393 7.64929 8.00211 7.64929 8.65195C7.64929 15.9915 7.64929 23.3159 7.64929 30.6516C7.65727 31.2574 7.14741 31.8146 6.58515 31.8146C6.02292 31.8146 5.5131 31.2574 5.52104 30.6516V20.9954C5.56199 20.446 5.29735 20.0072 5.07214 19.6518C4.80524 19.3952 4.4021 19.2397 3.99132 19.2397C3.58062 19.2397 3.19413 19.3952 2.92721 19.6518C2.66031 19.9083 2.46165 20.2391 2.46165 20.888V30.9741C2.46165 35.3665 3.94686 38.5208 6.15291 40.6482C8.35892 42.7757 11.3383 43.855 14.3334 43.855C17.3285 43.855 20.3079 42.7757 22.5139 40.6482C24.7199 38.5208 26.2051 35.3665 26.2051 30.9741V14.6356C26.2051 13.9857 26.0216 13.6555 25.7562 13.3994C25.4908 13.1434 25.0996 12.9874 24.6921 12.9874C24.2846 12.9874 23.8933 13.1434 23.6279 13.3994C23.2027 13.837 23.1674 14.2284 23.1624 14.761V24.8113C23.1704 25.4171 22.6605 25.9742 22.0982 25.9742C21.536 25.9742 21.0262 25.4171 21.0341 24.8113C21.0341 19.4261 21.0341 14.0506 21.0341 8.66987C21.0341 8.01444 20.8524 7.65623 20.5852 7.39791C20.3179 7.13957 19.9138 6.98585 19.5044 6.98585C19.095 6.98585 18.7076 7.13957 18.4403 7.39791C18.173 7.65623 17.9914 8.01444 17.9914 8.66987V22.9303C17.9994 23.536 17.4895 24.0931 16.9273 24.0931C16.365 24.0931 15.8552 23.536 15.8631 22.9303C15.8578 16.7684 15.8631 10.6096 15.8631 4.45984C15.8631 3.80999 15.663 3.46181 15.3976 3.20577C15.1322 2.94975 14.7409 2.81164 14.3334 2.81164Z" fill="white"/>
</svg>
