<svg width="375" height="812" viewBox="0 0 375 812" fill="none" xmlns="http://www.w3.org/2000/svg">
<rect width="375" height="812" transform="matrix(-1 0 0 1 375 0)" fill="url(#paint0_radial_19_2787)"/>
<path opacity="0.127279" fill-rule="evenodd" clip-rule="evenodd" d="M58.602 323.408L57.366 304.801C52 224.063 122.32 158.866 202.422 170.308C271.823 186.251 375.018 283.522 375.018 283.522L375.008 364.793C375.008 364.793 360.071 374.183 350.587 375.632C328.096 379.068 309.854 395.647 304.292 417.708C291.389 523.765 189.5 595.317 85.3609 571.451L79.321 569.933C46.9628 561.795 0.0283203 504.461 0.0283203 504.461L0.176325 405.587C0.176325 405.587 7.83992 398.083 12.396 394.908C36.577 378.055 53.17 352.378 58.602 323.408Z" fill="url(#paint1_radial_19_2787)"/>
<path opacity="0.457403" fill-rule="evenodd" clip-rule="evenodd" d="M0.5 257C10.165 257 18 264.835 18 274.5C18 284.165 10.165 292 0.5 292V257Z" fill="#2D2599"/>
<defs>
<radialGradient id="paint0_radial_19_2787" cx="0" cy="0" r="1" gradientUnits="userSpaceOnUse" gradientTransform="translate(187.5 390.964) rotate(90) scale(558.358 204.602)">
<stop stop-color="#2D2599"/>
<stop offset="1" stop-color="#656DF4"/>
</radialGradient>
<radialGradient id="paint1_radial_19_2787" cx="0" cy="0" r="1" gradientUnits="userSpaceOnUse" gradientTransform="translate(187.523 372.527) rotate(90) scale(407.055 374.989)">
<stop stop-color="#2D2599"/>
<stop offset="1"/>
</radialGradient>
</defs>
</svg>
