<svg width="59" height="51" viewBox="0 0 59 51" fill="none" xmlns="http://www.w3.org/2000/svg">
<path fill-rule="evenodd" clip-rule="evenodd" d="M17.5034 96.6942C16.0173 94.3634 8.31733 78.856 10.2609 76.6467C29.5194 54.7585 32.8757 26.9598 32.8276 26.5569C32.4117 23.0605 34.902 19.8419 38.3921 19.3685C41.8831 18.895 45.0516 21.3402 45.475 24.8354C45.7018 26.712 50.7668 71.0941 27.634 97.3852C25.2885 100.051 21.2615 100.336 18.6398 98.0213C18.1906 97.6251 17.8113 97.1771 17.5034 96.6942Z" fill="#FBC399"/>
<path fill-rule="evenodd" clip-rule="evenodd" d="M22.1105 98.3999C21.6612 98.0029 21.2819 97.555 20.9744 97.0725C19.4879 94.7413 11.7878 79.2336 13.7315 77.0246C32.9902 55.1369 36.3462 27.3375 36.298 26.9349C35.8912 23.5135 38.2704 20.3642 41.6436 19.7871C40.6516 19.3779 39.5405 19.2126 38.3921 19.3685C34.902 19.8419 32.4117 23.0604 32.8276 26.5568C32.8757 26.9598 29.5194 54.7585 10.261 76.6467C8.31733 78.8559 16.0174 94.3634 17.5035 96.6942C17.8113 97.1771 18.1906 97.625 18.6399 98.0213C20.1229 99.3301 22.0547 99.8065 23.8778 99.4922C23.248 99.2344 22.6485 98.8747 22.1105 98.3999Z" fill="#EA9975"/>
<path fill-rule="evenodd" clip-rule="evenodd" d="M21.2242 20.5966C20.5003 19.461 20.562 17.9293 21.4804 16.8228L25.4874 11.9946C26.2948 11.0215 27.5884 10.6055 28.7932 10.9301L38.4626 13.5423C40.1538 13.9993 41.1356 15.7523 40.6554 17.4561C40.1749 19.1607 38.4131 20.1731 36.7211 19.7156L29.0308 17.6389L26.3503 20.8695C25.2165 22.2358 23.2072 22.437 21.8626 21.3204C21.607 21.1081 21.3939 20.8627 21.2242 20.5966Z" fill="#EA9975"/>
<path fill-rule="evenodd" clip-rule="evenodd" d="M29.4053 32.1974C35.2924 36.1598 45.5167 38.7372 46.0315 32.0221C46.8713 21.0671 44.2776 10.4694 37.6687 9.12288C37.6687 9.12288 32.9058 11.9646 31.225 15.9685C35.8145 26.0064 29.4053 32.1974 29.4053 32.1974Z" fill="#FBC399"/>
<path fill-rule="evenodd" clip-rule="evenodd" d="M34.8926 25.563C35.2221 23.103 34.0605 17.7531 31.225 15.9685C35.8146 26.0063 29.4053 32.1973 29.4053 32.1973C30.8953 33.2002 34.2717 30.186 34.8926 25.563Z" fill="#EA9975"/>
<path fill-rule="evenodd" clip-rule="evenodd" d="M16.2111 20.2878C15.7624 19.5841 15.5925 18.7016 15.8086 17.8176C16.0811 16.7056 18.6858 6.91556 26.1769 5.60493C33.2016 4.37657 39.3489 9.65032 39.6072 9.87537C40.9252 11.0249 41.0498 13.0423 39.8843 14.3822C38.7218 15.7197 36.7144 15.8768 35.3966 14.7348C34.2434 13.7472 30.5233 11.3165 27.1782 11.9013C24.5334 12.3642 22.51 17.1451 21.9937 19.2547C21.5726 20.9747 19.8462 22.0474 18.139 21.6502C17.3083 21.4575 16.635 20.9526 16.2111 20.2878Z" fill="#FBC399"/>
<path fill-rule="evenodd" clip-rule="evenodd" d="M18.2383 20.5729C17.7897 19.8694 17.6195 18.9868 17.8364 18.1027C18.1084 16.9909 20.713 7.20064 28.2043 5.89032C29.2533 5.70633 30.282 5.67072 31.2752 5.73898C29.6866 5.40134 27.9609 5.29292 26.177 5.60489C18.6858 6.91552 16.0811 16.7056 15.8086 17.8176C15.5926 18.7016 15.7625 19.584 16.2111 20.2878C16.6351 20.9526 17.3084 21.4575 18.1391 21.6501C18.5872 21.7543 19.0343 21.7521 19.4607 21.6689C18.9552 21.4128 18.5334 21.0358 18.2383 20.5729Z" fill="#EA9975"/>
<path fill-rule="evenodd" clip-rule="evenodd" d="M37.424 15.0201C36.4002 14.1434 33.3524 12.1335 30.3406 12.1025C32.6013 12.698 34.6045 14.0568 35.3967 14.7348C36.1519 15.3885 37.1323 15.6142 38.0508 15.4388C37.831 15.3262 37.6194 15.1892 37.424 15.0201Z" fill="#EA9975"/>
<path fill-rule="evenodd" clip-rule="evenodd" d="M38.8203 11.5727C36.5171 10.3349 28.6113 6.68688 24.2413 7.71435C21.8589 8.33495 19.8587 9.72385 18.3315 11.7106C16.6785 14.4867 15.946 17.2567 15.8085 17.8175C15.5926 18.7015 15.7624 19.584 16.2111 20.2877C16.635 20.9526 17.3083 21.4575 18.1391 21.65C19.4867 21.9638 20.8351 21.3527 21.555 20.2403C21.8755 18.181 22.5476 16.5453 23.5131 15.4472C24.4455 13.7328 25.7165 12.1568 27.1783 11.9012C30.5233 11.3165 34.2435 13.7472 35.3966 14.7348C36.7145 15.8767 38.7218 15.7196 39.8843 14.3822C40.1554 14.0698 40.3542 13.7207 40.487 13.3545C40.1737 12.592 39.6018 11.9395 38.8203 11.5727Z" fill="#EA9975"/>
<path fill-rule="evenodd" clip-rule="evenodd" d="M15.9619 25.3151C15.6178 24.7754 15.4341 24.1246 15.4737 23.431C15.8883 16.1891 19.3453 11.0237 24.7211 9.61363C29.0797 8.46974 36.6987 11.2479 38.9302 12.1265C40.5597 12.7679 41.342 14.6215 40.6783 16.2652C40.0141 17.9095 38.1559 18.7229 36.5272 18.0816C32.8526 16.6389 27.8451 15.3761 26.245 15.7959C23.6905 16.4661 22.0823 19.3474 21.8329 23.7017C21.7319 25.4647 20.2265 26.8339 18.4708 26.7588C17.4054 26.7136 16.4925 26.1473 15.9619 25.3151Z" fill="#FBC399"/>
<path fill-rule="evenodd" clip-rule="evenodd" d="M17.7703 31.2912C17.0816 30.2109 17.0964 28.7617 17.9158 27.6568C18.9715 26.2324 20.9636 25.9184 22.3688 26.9519C23.4777 27.7622 26.984 29.8434 29.8641 29.7371C32.6762 29.6334 34.7763 26.4404 34.7967 26.4079C35.7311 24.8992 37.6971 24.4169 39.1872 25.3327C40.6757 26.2492 41.127 28.2134 40.1932 29.7229C40.0373 29.9746 36.3013 35.8925 30.0017 36.1245C24.4061 36.331 19.1298 32.5532 18.5463 32.1217C18.2299 31.8879 17.9705 31.605 17.7703 31.2912Z" fill="#FBC399"/>
<path fill-rule="evenodd" clip-rule="evenodd" d="M17.3168 29.2434C17.3168 29.2434 17.0816 30.211 17.7704 31.2913C17.9705 31.6051 18.2299 31.8881 18.5464 32.1218C19.1297 32.5532 24.4062 36.3311 30.0018 36.1246C30.8854 36.0924 31.7162 35.9448 32.4965 35.7201C27.0156 35.7818 18.4779 32.1351 17.3168 29.2434Z" fill="#EA9975"/>
<path d="M43.3564 40.9482L43.9693 42.9155" stroke="#EA9975" stroke-width="0.5" stroke-linecap="round"/>
<path d="M38.9578 36.9661L38.0499 38.8386" stroke="#EA9975" stroke-width="0.5" stroke-linecap="round"/>
<path d="M39.5554 42.8436L39.2665 44.8976" stroke="#EA9975" stroke-width="0.5" stroke-linecap="round"/>
<path d="M39.4539 50.1464L38.4814 51.9866" stroke="#EA9975" stroke-width="0.5" stroke-linecap="round"/>
<path d="M35.9206 44.4143L34.3436 45.7727" stroke="#EA9975" stroke-width="0.5" stroke-linecap="round"/>
<path d="M34.0793 40.8921L32.5023 42.2505" stroke="#EA9975" stroke-width="0.5" stroke-linecap="round"/>
<path d="M35.528 49.1689L33.9511 50.5273" stroke="#EA9975" stroke-width="0.5" stroke-linecap="round"/>
<path d="M31.449 48.3716L29.4774 49.011" stroke="#EA9975" stroke-width="0.5" stroke-linecap="round"/>
<path d="M42.4877 46.5265L42.9222 48.5434" stroke="#EA9975" stroke-width="0.5" stroke-linecap="round"/>
<path d="M18.8012 28.2195L21.3449 29.7841C21.6247 29.9543 21.8492 30.2015 21.9922 30.497C22.4746 31.4933 21.9065 32.6955 20.8256 32.9662L20.6233 33.0168" stroke="#EA9975" stroke-width="0.5" stroke-linecap="round"/>
<path d="M18.4417 26.0531L18.8801 23.9531C18.9569 23.6205 18.938 23.2742 18.8257 22.9548C18.4473 21.8778 17.1669 21.4446 16.1958 22.0651L16.0142 22.1812" stroke="#EA9975" stroke-width="0.5" stroke-linecap="round"/>
</svg>
