<svg width="32" height="35" viewBox="0 0 32 35" fill="none" xmlns="http://www.w3.org/2000/svg">
<path fill-rule="evenodd" clip-rule="evenodd" d="M29.3905 26.7515C31.1385 23.2239 31.1587 9.71509 31.1587 9.14165C31.1587 7.3044 29.5562 5.75188 27.6592 5.75132C27.3882 5.75132 26.8932 5.82759 26.3865 5.9886C26.2208 3.96039 24.5315 2.36154 22.4799 2.36154C21.5393 2.36154 20.6753 2.6977 19.9995 3.25644C19.4474 1.7463 18.0067 0.666656 16.3208 0.666656C14.4966 0.666656 12.5772 1.71466 12.0088 3.68073C11.3935 3.19769 10.6186 2.92651 9.73948 2.92651C7.50764 2.92651 5.88779 4.7084 5.88779 7.16598L5.89395 9.42075C5.41801 9.66255 4.6834 10.1207 3.76457 10.9625C0.724758 13.7506 -0.27022 20.4929 3.16265 25.7109C6.6784 31.056 11.996 34 18.1361 34C25.2073 34 27.5735 30.4193 29.3905 26.7515ZM27.6956 7.44677C28.6654 7.44677 29.475 8.23884 29.475 9.14165C29.475 12.9359 29.1861 23.3606 27.8809 25.9945C26.1698 29.4481 24.2487 32.3062 18.1226 32.3062C12.5637 32.3062 7.72881 29.6317 4.53502 24.7753C2.48515 21.659 1.52937 15.2184 4.80098 12.2184C5.17333 11.8766 5.95442 11.4134 5.95442 11.4134L5.94602 17.3342C5.94602 18.0404 6.18567 18.4641 6.68904 18.4641C7.1924 18.4641 7.43821 18.0641 7.43821 17.3342V7.16429C7.43821 5.89877 8.18402 4.62196 9.68461 4.62196C11.2356 4.62196 11.809 5.99143 11.809 7.16429C11.809 7.63208 12.23 8.01173 12.6936 8.01173C13.1572 8.01173 13.5973 7.63208 13.5973 7.16429V4.90444C13.5973 3.03893 15.2715 2.36211 16.3969 2.36211C17.6321 2.36211 18.6366 3.37565 18.6366 4.62196V7.72925C18.6366 8.19704 19.0129 8.57669 19.4765 8.57669C19.9401 8.57669 20.3164 8.19704 20.3164 7.72925V6.31684C20.3164 5.07054 21.3209 4.05699 22.5561 4.05699C23.7913 4.05699 24.7958 5.07054 24.7958 6.31684V9.9891C24.7958 10.4569 25.172 10.8365 25.6356 10.8365C26.0992 10.8365 26.4755 10.4569 26.4755 9.9891V7.8106C26.4755 7.65241 27.3148 7.44677 27.6956 7.44677Z" fill="white"/>
<path d="M29.3905 26.7515L29.1664 26.6406L29.1665 26.6405L29.3905 26.7515ZM27.6592 5.75132V5.50132H27.6593L27.6592 5.75132ZM26.3865 5.9886L26.4622 6.22686L26.1629 6.32196L26.1373 6.00896L26.3865 5.9886ZM19.9995 3.25644L20.1588 3.44912L19.8861 3.67453L19.7647 3.34228L19.9995 3.25644ZM12.0088 3.68073L12.249 3.75015L12.1461 4.10627L11.8545 3.87738L12.0088 3.68073ZM5.88779 7.16598L5.63779 7.16666V7.16598H5.88779ZM5.89395 9.42075L6.14395 9.42006L6.14437 9.57393L6.00719 9.64363L5.89395 9.42075ZM3.76457 10.9625L3.59558 10.7783L3.59569 10.7782L3.76457 10.9625ZM3.16265 25.7109L3.37151 25.5735L3.37152 25.5735L3.16265 25.7109ZM27.8809 25.9945L27.6569 25.8835L27.6569 25.8835L27.8809 25.9945ZM4.53502 24.7753L4.74389 24.6379L4.7439 24.6379L4.53502 24.7753ZM4.80098 12.2184L4.97005 12.4026L4.96994 12.4027L4.80098 12.2184ZM5.95442 11.4134L5.82689 11.1983L6.20504 10.9741L6.20442 11.4137L5.95442 11.4134ZM5.94602 17.3342H5.69602V17.3338L5.94602 17.3342ZM31.4087 9.14165C31.4087 9.43017 31.4036 12.9562 31.1797 16.8531C31.0677 18.8013 30.9008 20.846 30.6518 22.627C30.4041 24.3982 30.0713 25.9406 29.6145 26.8625L29.1665 26.6405C29.5836 25.7987 29.9089 24.3296 30.1566 22.5578C30.403 20.7958 30.5689 18.7661 30.6805 16.8244C30.9037 12.9416 30.9087 9.42658 30.9087 9.14165H31.4087ZM27.6593 5.50132C29.6867 5.50192 31.4087 7.15888 31.4087 9.14165H30.9087C30.9087 7.44992 29.4257 6.00184 27.6591 6.00132L27.6593 5.50132ZM26.3108 5.75034C26.8345 5.58392 27.3557 5.50132 27.6592 5.50132V6.00132C27.4207 6.00132 26.9519 6.07125 26.4622 6.22686L26.3108 5.75034ZM22.4799 2.11154C24.6646 2.11154 26.4596 3.81327 26.6357 5.96824L26.1373 6.00896C25.9819 4.1075 24.3983 2.61154 22.4799 2.61154V2.11154ZM19.8402 3.06377C20.5588 2.46963 21.4786 2.11154 22.4799 2.11154V2.61154C21.6 2.61154 20.7918 2.92577 20.1588 3.44912L19.8402 3.06377ZM16.3208 0.416656C18.1164 0.416656 19.6478 1.5664 20.2343 3.1706L19.7647 3.34228C19.247 1.9262 17.897 0.916656 16.3208 0.916656V0.416656ZM11.7687 3.61131C12.3753 1.51265 14.4144 0.416656 16.3208 0.416656V0.916656C14.5787 0.916656 12.779 1.91667 12.249 3.75015L11.7687 3.61131ZM9.73948 2.67651C10.6717 2.67651 11.5017 2.96478 12.1632 3.48408L11.8545 3.87738C11.2853 3.43059 10.5654 3.17651 9.73948 3.17651V2.67651ZM5.63779 7.16598C5.63779 4.59339 7.34758 2.67651 9.73948 2.67651V3.17651C7.6677 3.17651 6.13779 4.8234 6.13779 7.16598H5.63779ZM5.64395 9.42143L5.63779 7.16666L6.13779 7.1653L6.14395 9.42006L5.64395 9.42143ZM3.59569 10.7782C4.5303 9.92194 5.28347 9.45049 5.78071 9.19786L6.00719 9.64363C5.55256 9.87461 4.8365 10.3195 3.93345 11.1469L3.59569 10.7782ZM2.9538 25.8483C1.20405 23.1886 0.583765 20.1426 0.787043 17.407C0.989906 14.6768 2.01604 12.227 3.59558 10.7783L3.93355 11.1468C2.47329 12.4861 1.48203 14.8015 1.28567 17.444C1.08972 20.081 1.68839 23.0151 3.37151 25.5735L2.9538 25.8483ZM18.1361 34.25C11.9077 34.25 6.51343 31.2601 2.95379 25.8482L3.37152 25.5735C6.84336 30.8518 12.0843 33.75 18.1361 33.75V34.25ZM29.6145 26.8625C28.703 28.7024 27.6373 30.557 25.8892 31.9468C24.1345 33.342 21.7171 34.25 18.1361 34.25V33.75C21.6262 33.75 23.9276 32.8676 25.578 31.5555C27.2351 30.238 28.261 28.4684 29.1664 26.6406L29.6145 26.8625ZM29.225 9.14165C29.225 8.3863 28.5369 7.69677 27.6956 7.69677V7.19677C28.7939 7.19677 29.725 8.09139 29.725 9.14165H29.225ZM27.6569 25.8835C27.9639 25.2639 28.2227 24.1541 28.4334 22.7466C28.6426 21.3488 28.8005 19.6876 28.918 17.986C29.1529 14.5833 29.225 11.0344 29.225 9.14165H29.725C29.725 11.0432 29.6527 14.6038 29.4168 18.0204C29.2989 19.7286 29.1399 21.4045 28.9279 22.8207C28.7173 24.2271 28.4505 25.4081 28.1049 26.1055L27.6569 25.8835ZM18.1226 32.0562C21.1446 32.0562 23.0976 31.3523 24.503 30.2488C25.9156 29.1397 26.8032 27.6065 27.6569 25.8835L28.1049 26.1055C27.2475 27.8361 26.319 29.4587 24.8118 30.6421C23.2973 31.8311 21.2267 32.5562 18.1226 32.5562V32.0562ZM4.7439 24.6379C7.89384 29.4277 12.6521 32.0562 18.1226 32.0562V32.5562C12.4753 32.5562 7.56378 29.8357 4.32614 24.9127L4.7439 24.6379ZM4.96994 12.4027C3.41028 13.8329 2.83738 16.106 2.92228 18.4441C3.00707 20.7794 3.74732 23.1229 4.74389 24.6379L4.32616 24.9127C3.27285 23.3114 2.51027 20.8764 2.42261 18.4623C2.33505 16.0511 2.92007 13.604 4.63202 12.0342L4.96994 12.4027ZM5.95442 11.4134C6.08195 11.6284 6.08196 11.6284 6.08197 11.6284C6.08197 11.6284 6.08197 11.6284 6.08196 11.6284C6.08196 11.6284 6.08194 11.6284 6.08191 11.6284C6.08184 11.6285 6.08174 11.6285 6.08158 11.6286C6.08127 11.6288 6.08077 11.6291 6.08009 11.6295C6.07874 11.6303 6.07666 11.6315 6.07389 11.6332C6.06836 11.6365 6.06009 11.6415 6.04935 11.648C6.02788 11.6609 5.9966 11.6799 5.95783 11.7039C5.88022 11.7517 5.77295 11.8191 5.65441 11.8968C5.41326 12.0549 5.13994 12.2467 4.97005 12.4026L4.63192 12.0343C4.83438 11.8484 5.13778 11.6376 5.38026 11.4787C5.50353 11.3978 5.6148 11.328 5.69528 11.2783C5.73556 11.2535 5.76821 11.2336 5.79091 11.2199C5.80226 11.2131 5.81113 11.2078 5.81722 11.2041C5.82027 11.2023 5.82262 11.2009 5.82424 11.1999C5.82505 11.1994 5.82568 11.1991 5.82613 11.1988C5.82635 11.1987 5.82652 11.1986 5.82665 11.1985C5.82671 11.1984 5.82677 11.1984 5.8268 11.1984C5.82682 11.1984 5.82685 11.1984 5.82685 11.1984C5.82687 11.1984 5.82689 11.1983 5.95442 11.4134ZM5.69602 17.3338L5.70442 11.413L6.20442 11.4137L6.19602 17.3345L5.69602 17.3338ZM6.68904 18.7141C6.35352 18.7141 6.08714 18.5658 5.91748 18.2976C5.75835 18.046 5.69602 17.7086 5.69602 17.3342H6.19602C6.19602 17.666 6.25352 17.8935 6.34005 18.0303C6.41606 18.1505 6.52118 18.2141 6.68904 18.2141V18.7141ZM7.68821 17.3342C7.68821 17.7198 7.62459 18.0591 7.46196 18.3092C7.28808 18.5765 7.01892 18.7141 6.68904 18.7141V18.2141C6.86252 18.2141 6.96794 18.1517 7.04281 18.0366C7.12893 17.9041 7.18821 17.6785 7.18821 17.3342H7.68821ZM7.68821 7.16429V17.3342H7.18821V7.16429H7.68821ZM9.68461 4.87196C9.01399 4.87196 8.5239 5.15356 8.19548 5.57274C7.86184 5.99858 7.68821 6.57702 7.68821 7.16429H7.18821C7.18821 6.48604 7.38749 5.79331 7.8019 5.26437C8.22154 4.72876 8.85465 4.37196 9.68461 4.37196V4.87196ZM11.559 7.16429C11.559 6.6129 11.4233 6.03121 11.1226 5.59523C10.8296 5.17037 10.3737 4.87196 9.68461 4.87196V4.37196C10.5465 4.37196 11.1528 4.75828 11.5342 5.31137C11.908 5.85333 12.059 6.54281 12.059 7.16429H11.559ZM12.6936 8.26173C12.1068 8.26173 11.559 7.78455 11.559 7.16429H12.059C12.059 7.4796 12.3532 7.76173 12.6936 7.76173V8.26173ZM13.8473 7.16429C13.8473 7.79104 13.2734 8.26173 12.6936 8.26173V7.76173C13.041 7.76173 13.3473 7.47311 13.3473 7.16429H13.8473ZM13.8473 4.90444V7.16429H13.3473V4.90444H13.8473ZM16.3969 2.61211C15.8771 2.61211 15.2307 2.76998 14.7211 3.13663C14.2215 3.49613 13.8473 4.05885 13.8473 4.90444H13.3473C13.3473 3.88452 13.8102 3.17608 14.4291 2.73078C15.038 2.29265 15.7913 2.11211 16.3969 2.11211V2.61211ZM18.3866 4.62196C18.3866 3.5116 17.4919 2.61211 16.3969 2.61211V2.11211C17.7723 2.11211 18.8866 3.2397 18.8866 4.62196H18.3866ZM18.3866 7.72925V4.62196H18.8866V7.72925H18.3866ZM19.4765 8.82669C18.8727 8.82669 18.3866 8.33299 18.3866 7.72925H18.8866C18.8866 8.06108 19.1531 8.32669 19.4765 8.32669V8.82669ZM20.5664 7.72925C20.5664 8.33299 20.0803 8.82669 19.4765 8.82669V8.32669C19.7999 8.32669 20.0664 8.06108 20.0664 7.72925H20.5664ZM20.5664 6.31684V7.72925H20.0664V6.31684H20.5664ZM22.5561 4.30699C21.4611 4.30699 20.5664 5.20649 20.5664 6.31684H20.0664C20.0664 4.93458 21.1807 3.80699 22.5561 3.80699V4.30699ZM24.5458 6.31684C24.5458 5.20649 23.6511 4.30699 22.5561 4.30699V3.80699C23.9314 3.80699 25.0458 4.93458 25.0458 6.31684H24.5458ZM24.5458 9.9891V6.31684H25.0458V9.9891H24.5458ZM25.6356 11.0865C25.0318 11.0865 24.5458 10.5928 24.5458 9.9891H25.0458C25.0458 10.3209 25.3122 10.5865 25.6356 10.5865V11.0865ZM26.7255 9.9891C26.7255 10.5928 26.2394 11.0865 25.6356 11.0865V10.5865C25.9591 10.5865 26.2255 10.3209 26.2255 9.9891H26.7255ZM26.7255 7.8106V9.9891H26.2255V7.8106H26.7255ZM27.6956 7.69677C27.5362 7.69677 27.2552 7.74235 27.0094 7.81032C26.8874 7.84405 26.7874 7.87973 26.7227 7.91146C26.7073 7.91903 26.6957 7.92552 26.6874 7.93068C26.6787 7.93603 26.676 7.93852 26.6771 7.93758C26.6775 7.93721 26.6874 7.92873 26.6983 7.91096C26.7097 7.89231 26.7255 7.85765 26.7255 7.8106H26.2255C26.2255 7.67984 26.3083 7.59596 26.3476 7.56153C26.3949 7.52001 26.4513 7.48767 26.5025 7.46258C26.6071 7.41125 26.7407 7.36586 26.8761 7.32841C27.1452 7.25401 27.4742 7.19677 27.6956 7.19677V7.69677Z" fill="white"/>
</svg>
